<mxfile host="app.diagrams.net" modified="2023-11-09T08:29:32.397Z" agent="Mozilla/5.0 (Windows NT 10.0; Win64; x64; rv:109.0) Gecko/20100101 Firefox/116.0" etag="xnDX8uqRtxE6Wdr1LdvS" version="22.1.0" type="github">
  <diagram id="C5RBs43oDa-KdzZeNtuy" name="Page-1">
    <mxGraphModel dx="880" dy="508" grid="1" gridSize="10" guides="1" tooltips="1" connect="1" arrows="1" fold="1" page="1" pageScale="1" pageWidth="827" pageHeight="1169" math="0" shadow="0">
      <root>
        <mxCell id="WIyWlLk6GJQsqaUBKTNV-0" />
        <mxCell id="WIyWlLk6GJQsqaUBKTNV-1" parent="WIyWlLk6GJQsqaUBKTNV-0" />
        <mxCell id="T9UZOMTdptr9Dn5YOGcp-2" style="edgeStyle=orthogonalEdgeStyle;rounded=0;orthogonalLoop=1;jettySize=auto;html=1;entryX=0.5;entryY=0;entryDx=0;entryDy=0;" edge="1" parent="WIyWlLk6GJQsqaUBKTNV-1" source="T9UZOMTdptr9Dn5YOGcp-0" target="T9UZOMTdptr9Dn5YOGcp-1">
          <mxGeometry relative="1" as="geometry" />
        </mxCell>
        <mxCell id="T9UZOMTdptr9Dn5YOGcp-0" value="Start" style="ellipse;whiteSpace=wrap;html=1;" vertex="1" parent="WIyWlLk6GJQsqaUBKTNV-1">
          <mxGeometry x="280" y="10" width="120" height="80" as="geometry" />
        </mxCell>
        <mxCell id="T9UZOMTdptr9Dn5YOGcp-4" style="edgeStyle=orthogonalEdgeStyle;rounded=0;orthogonalLoop=1;jettySize=auto;html=1;entryX=0.5;entryY=0;entryDx=0;entryDy=0;" edge="1" parent="WIyWlLk6GJQsqaUBKTNV-1" source="T9UZOMTdptr9Dn5YOGcp-1" target="T9UZOMTdptr9Dn5YOGcp-3">
          <mxGeometry relative="1" as="geometry" />
        </mxCell>
        <mxCell id="T9UZOMTdptr9Dn5YOGcp-1" value="number" style="shape=parallelogram;perimeter=parallelogramPerimeter;whiteSpace=wrap;html=1;fixedSize=1;" vertex="1" parent="WIyWlLk6GJQsqaUBKTNV-1">
          <mxGeometry x="250" y="140" width="160" height="90" as="geometry" />
        </mxCell>
        <mxCell id="T9UZOMTdptr9Dn5YOGcp-7" value="false" style="edgeStyle=orthogonalEdgeStyle;rounded=0;orthogonalLoop=1;jettySize=auto;html=1;entryX=0.5;entryY=0;entryDx=0;entryDy=0;" edge="1" parent="WIyWlLk6GJQsqaUBKTNV-1" source="T9UZOMTdptr9Dn5YOGcp-3" target="T9UZOMTdptr9Dn5YOGcp-5">
          <mxGeometry relative="1" as="geometry" />
        </mxCell>
        <mxCell id="T9UZOMTdptr9Dn5YOGcp-8" value="True" style="edgeStyle=orthogonalEdgeStyle;rounded=0;orthogonalLoop=1;jettySize=auto;html=1;entryX=0;entryY=0.5;entryDx=0;entryDy=0;" edge="1" parent="WIyWlLk6GJQsqaUBKTNV-1" source="T9UZOMTdptr9Dn5YOGcp-3" target="T9UZOMTdptr9Dn5YOGcp-6">
          <mxGeometry relative="1" as="geometry" />
        </mxCell>
        <mxCell id="T9UZOMTdptr9Dn5YOGcp-3" value="&lt;div&gt;number%3==0 ?&lt;br&gt;&lt;/div&gt;&lt;div&gt;number%5==0 ?&lt;br&gt;&lt;/div&gt;" style="rhombus;whiteSpace=wrap;html=1;" vertex="1" parent="WIyWlLk6GJQsqaUBKTNV-1">
          <mxGeometry x="235" y="270" width="190" height="120" as="geometry" />
        </mxCell>
        <mxCell id="T9UZOMTdptr9Dn5YOGcp-5" value="&lt;br&gt;number&amp;nbsp; ko chia hết cho cả 3 và 5&lt;br&gt;" style="rounded=0;whiteSpace=wrap;html=1;" vertex="1" parent="WIyWlLk6GJQsqaUBKTNV-1">
          <mxGeometry x="270" y="470" width="120" height="60" as="geometry" />
        </mxCell>
        <mxCell id="T9UZOMTdptr9Dn5YOGcp-6" value="number chia hết cho cả 3 và 5" style="rounded=0;whiteSpace=wrap;html=1;" vertex="1" parent="WIyWlLk6GJQsqaUBKTNV-1">
          <mxGeometry x="540" y="300" width="120" height="60" as="geometry" />
        </mxCell>
        <mxCell id="T9UZOMTdptr9Dn5YOGcp-9" value="end" style="ellipse;whiteSpace=wrap;html=1;" vertex="1" parent="WIyWlLk6GJQsqaUBKTNV-1">
          <mxGeometry x="560" y="610" width="120" height="80" as="geometry" />
        </mxCell>
        <mxCell id="T9UZOMTdptr9Dn5YOGcp-10" style="edgeStyle=orthogonalEdgeStyle;rounded=0;orthogonalLoop=1;jettySize=auto;html=1;entryX=0;entryY=0.4;entryDx=0;entryDy=0;entryPerimeter=0;" edge="1" parent="WIyWlLk6GJQsqaUBKTNV-1" source="T9UZOMTdptr9Dn5YOGcp-5" target="T9UZOMTdptr9Dn5YOGcp-9">
          <mxGeometry relative="1" as="geometry" />
        </mxCell>
        <mxCell id="T9UZOMTdptr9Dn5YOGcp-11" style="edgeStyle=orthogonalEdgeStyle;rounded=0;orthogonalLoop=1;jettySize=auto;html=1;entryX=0.558;entryY=0.013;entryDx=0;entryDy=0;entryPerimeter=0;" edge="1" parent="WIyWlLk6GJQsqaUBKTNV-1" source="T9UZOMTdptr9Dn5YOGcp-6" target="T9UZOMTdptr9Dn5YOGcp-9">
          <mxGeometry relative="1" as="geometry" />
        </mxCell>
      </root>
    </mxGraphModel>
  </diagram>
</mxfile>
